<?xml version="1.0" encoding="UTF-8"?>
<!DOCTYPE svg PUBLIC "-//W3C//DTD SVG 1.1//EN" "http://www.w3.org/Graphics/SVG/1.1/DTD/svg11.dtd">
<!-- Creator: CorelDRAW 2018 (64-Bit) -->
<svg xmlns="http://www.w3.org/2000/svg" xml:space="preserve" width="55mm" height="55mm" version="1.1" shape-rendering="geometricPrecision" text-rendering="geometricPrecision" image-rendering="optimizeQuality" fill-rule="evenodd" clip-rule="evenodd"
viewBox="0 0 5500 5500"
 xmlns:xlink="http://www.w3.org/1999/xlink">
 <g id="Layer_x0020_1">
  <metadata id="CorelCorpID_0Corel-Layer"/>
  <path fill="black" d="M1039.18 1480.78l375.99 1.8 -1.59 184.42 204.15 0 -0.39 -182.62 1768.78 3.61 -2.8 179.01 204.16 0 -0.99 -182.62 387.17 1.8 142.71 2368.17 47.56 636.13 -623.9 -7.05 -2692.03 0.12 191.18 -3002.77zm-375.48 2101.92c-3.61,67.26 -9.01,152.54 -29.43,444.4 -9.01,134.52 -18.02,276.84 -23.42,369.32 -9.01,168.15 -18.62,305.68 -21.02,308.08 -1.2,1.8 0,7.8 3.6,13.81 5.41,10.81 46.25,11.41 1458.7,11.41 1089.37,0 1456.29,1.8 1468.3,7.21l903.59 -1.99 -67.65 -982.3c-7.81,-198.77 -18.02,-355.51 -40.84,-632.36 -3,-37.83 -8.4,-118.9 -12.01,-180.16 -21.02,-366.92 -21.02,-363.92 -29.42,-471.42 -3.61,-43.23 -9.01,-122.51 -12.02,-177.15 -3,-54.65 -9,-138.13 -12.01,-186.17 -6,-78.67 -12.61,-179.56 -21.02,-324.29 -7.8,-123.71 -21.61,-326.69 -27.02,-384.34 -3.6,-34.83 -6.01,-82.27 -6.01,-105.69 0,-39.64 -1.2,-43.24 -13.21,-46.84 -7.8,-1.8 -143.52,-3.61 -302.06,-3.61 -216.8,0 -290.66,-1.8 -296.07,-7.2 -4.8,-4.81 -7.2,-36.63 -7.2,-103.3 0,-52.84 -3.01,-112.29 -6.61,-132.11 -25.82,-147.13 -40.23,-201.18 -69.06,-266.04 -4.8,-10.81 -12.61,-30.03 -17.42,-43.24 -4.2,-13.21 -15.01,-35.43 -22.82,-49.84 -8.4,-14.42 -22.22,-39.64 -31.82,-55.85 -9.01,-16.82 -20.42,-33.63 -24.03,-37.84 -4.2,-3.6 -9.6,-12.61 -11.41,-19.21 -1.8,-6.61 -6,-12.01 -8.4,-12.01 -1.81,0 -9.01,-9.01 -15.62,-19.82 -26.42,-45.04 -132.11,-157.34 -188.56,-199.38 -17.42,-13.21 -34.84,-27.02 -39.04,-30.03 -49.85,-46.84 -212.59,-129.71 -315.88,-161.54 -119.51,-36.63 -278.65,-57.05 -378.34,-48.04l0.01 0.01c-127.92,12.01 -176.56,21.62 -273.25,53.44 -165.14,54.65 -297.86,136.33 -423.37,261.24 -106.3,106.29 -180.16,215.59 -241.42,357.91 -45.64,106.3 -76.26,273.25 -76.86,413.77 0,57.65 -2.41,87.08 -7.21,91.88 -5.41,5.41 -79.87,7.21 -299.07,7.21 -270.84,0 -293.06,0.6 -301.46,10.21 -6.61,8.41 -10.81,41.44 -16.22,130.92 -4.2,66.05 -9.6,154.93 -12.61,198.17 -3,42.64 -8.4,122.51 -12.01,177.16 -6,98.49 -12.61,202.38 -24.02,363.32 -6.61,94.89 -22.22,345.31 -30.63,480.43 -2.4,49.24 -7.8,127.91 -10.81,174.15 -3,46.24 -9.01,127.32 -12.01,180.16 -14.32,210.17 -32.03,416.58 -43.83,627.56zm1994.96 -3312.36c260.64,42.04 503.25,217.39 629.96,455.8 72.37,136.28 110.67,343.66 93.29,497.66 -1.09,18.55 -1509.16,10.81 -1752.17,10.81 0,-143.03 -7.26,-247.35 40.45,-388.36 18.01,-53.45 51.64,-124.31 76.26,-159.74 9.61,-13.81 17.42,-27.63 17.42,-29.43 0,-9.01 85.28,-110.49 121.31,-144.13 60.65,-57.05 77.47,-70.86 124.91,-103.29 90.08,-61.25 221,-116.5 318.28,-135.12 79.87,-15.61 247.42,-17.41 330.3,-4.2l-0.01 0z"/>
  <path fill="#cca300" stroke="#2B2A29" stroke-width="20" stroke-miterlimit="22.9256" d="M3741.42 2614.04c-51.04,1.8 -62.45,4.2 -67.26,12.61 -3,6 -3,40.23 0,85.27 3.01,41.44 7.81,120.71 11.41,177.16 11.41,181.36 12.02,191.57 15.62,240.21 1.8,26.43 5.4,91.28 9.01,144.13 4.8,84.08 15.01,224 16.81,230.61 1.2,4.2 147.73,-7.21 161.54,-12.01 13.22,-5.41 13.82,-7.81 10.81,-40.24 -1.8,-18.62 -6,-85.88 -9,-148.33 -3.61,-63.06 -10.21,-169.35 -15.62,-237.21 -10.81,-143.53 -19.82,-270.24 -24.62,-363.32 -4.8,-93.09 -4.8,-93.09 -28.23,-91.89 -10.2,0.6 -46.84,2.41 -80.47,3.01l0 0z"/>
  <path fill="#cca300" stroke="#2B2A29" stroke-width="20" stroke-miterlimit="22.9256" d="M3700.59 1937.84c-29.43,3 -57.65,7.21 -61.86,8.41 -9,3.6 -8.4,42.03 4.21,270.24 4.8,84.07 9.6,127.31 14.41,130.31 16.21,10.21 159.14,-3 167.55,-15.61 2.4,-3.6 3,-22.22 1.2,-42.64 -9.61,-136.32 -21.02,-299.06 -22.22,-324.29l-1.2 -30.02 -24.02 -0.6c-13.21,-0.6 -48.04,1.2 -78.07,4.2z"/>
 </g>
</svg>
