<?xml version="1.0" standalone="no"?>
<!DOCTYPE svg PUBLIC "-//W3C//DTD SVG 20010904//EN"
 "http://www.w3.org/TR/2001/REC-SVG-20010904/DTD/svg10.dtd">
<svg version="1.0" xmlns="http://www.w3.org/2000/svg"
 width="1300.000000pt" height="1240.000000pt" viewBox="0 0 1100.000000 1140.000000"
 preserveAspectRatio="xMidYMid meet">
<metadata>
Created by potrace 1.16, written by Peter Selinger 2001-2019
</metadata>
<g transform="translate(0.000000,1140.000000) scale(0.100000,-0.100000)"
fill="#000000" stroke="none">
<path d="M8505 10410 c-116 -25 -123 -27 -223 -85 -106 -61 -222 -227 -248
-355 -8 -44 -8 -163 1 -215 15 -91 96 -233 163 -288 12 -10 28 -24 35 -30 50
-47 166 -107 208 -107 10 0 21 -4 24 -10 4 -6 63 -10 143 -10 154 0 182 -5
182 -29 0 -10 -432 -449 -960 -977 -766 -766 -964 -959 -984 -959 -20 0 -153
127 -643 615 -340 339 -631 622 -648 630 -16 8 -32 18 -35 21 -23 25 -200 72
-275 72 -78 -1 -199 -34 -288 -80 -41 -21 -346 -321 -1405 -1378 -745 -742
-1367 -1369 -1383 -1392 -34 -48 -91 -162 -108 -212 -15 -45 -14 -205 1 -250
6 -20 31 -77 55 -128 36 -74 57 -104 111 -155 111 -104 232 -153 377 -153 90
0 255 36 255 56 0 5 7 9 15 9 8 0 15 4 15 9 0 5 14 15 32 24 17 8 538 522
1157 1141 740 740 1133 1126 1146 1126 13 0 192 -172 510 -491 716 -717 731
-731 796 -770 91 -55 293 -103 337 -80 11 6 39 11 61 11 22 0 57 7 78 16 68
30 128 59 133 64 3 3 20 16 38 29 40 28 1146 1132 1185 1182 35 46 37 105 5
154 -26 39 -50 54 -93 56 -84 4 -53 31 -685 -601 -464 -464 -611 -605 -647
-621 -31 -14 -68 -21 -113 -22 -131 -2 -105 -24 -857 726 -369 369 -682 676
-695 683 -13 8 -43 13 -67 14 l-45 0 -1193 -1192 c-655 -655 -1200 -1196
-1210 -1202 -42 -25 -93 -36 -165 -36 -42 0 -80 5 -83 10 -3 6 -14 10 -24 10
-29 0 -107 76 -135 132 -36 71 -36 171 -2 243 19 40 280 306 1370 1395 1320
1319 1347 1345 1408 1368 99 37 222 23 295 -33 21 -16 322 -312 668 -658 347
-346 648 -645 669 -663 33 -28 48 -34 85 -34 25 0 55 7 66 15 23 17 2312 2303
2356 2353 24 27 29 41 29 87 0 46 -5 60 -29 87 -47 53 -82 58 -440 58 -175 0
-332 3 -349 6 -19 4 -55 29 -90 63 -48 45 -63 67 -77 113 -41 135 25 281 155
342 45 21 50 21 940 21 986 0 905 5 989 -64 47 -39 63 -71 80 -157 15 -83 16
-1599 0 -1693 -15 -91 -45 -149 -97 -185 -61 -44 -97 -54 -181 -55 -60 -1 -83
4 -125 25 -63 32 -82 48 -111 99 -34 59 -38 99 -42 458 -4 367 -3 361 -74 398
-51 26 -87 24 -132 -7 -21 -14 -250 -238 -508 -497 -502 -503 -521 -525 -500
-590 28 -83 129 -132 191 -91 14 9 179 170 367 357 335 334 343 340 362 323
18 -16 20 -34 24 -160 2 -77 8 -159 14 -181 10 -39 51 -135 62 -145 4 -3 19
-23 35 -45 67 -92 168 -165 266 -194 25 -7 55 -17 68 -22 13 -5 60 -9 105 -9
212 0 407 127 504 330 50 105 48 57 51 1040 2 819 1 931 -13 975 -25 79 -56
135 -108 191 -44 49 -163 134 -187 134 -6 0 -18 4 -28 9 -72 36 -67 35 -982
37 -492 1 -913 -2 -935 -6z"/>
<path d="M8895 6021 c-71 -24 -140 -57 -155 -76 -7 -8 -18 -15 -24 -15 -6 0
-515 -504 -1131 -1121 -616 -616 -1128 -1125 -1137 -1130 -12 -7 -25 -6 -40 2
-13 7 -282 271 -599 588 -317 317 -596 594 -620 616 -39 37 -70 54 -174 100
-76 34 -286 37 -360 5 -109 -47 -165 -81 -228 -141 -67 -62 -1071 -1059 -1965
-1951 -209 -208 -385 -378 -393 -378 -34 0 -39 23 -39 165 0 138 -11 207 -43
275 -46 99 -164 226 -247 267 -91 45 -154 56 -289 50 -131 -5 -224 -29 -271
-69 -11 -10 -24 -18 -28 -18 -13 0 -162 -156 -162 -169 0 -6 -4 -11 -8 -11
-12 0 -59 -148 -66 -207 -11 -89 -7 -1712 4 -1786 23 -153 142 -318 285 -394
128 -67 58 -64 1077 -60 507 2 937 7 953 11 102 27 231 117 296 206 29 40 81
147 98 201 14 44 15 246 1 254 -5 3 -10 17 -10 31 0 13 -10 41 -23 62 -12 20
-29 50 -37 66 -37 74 -215 226 -264 226 -8 0 -17 4 -20 9 -10 15 -67 23 -224
30 -152 6 -171 11 -172 45 0 4 75 85 167 178 93 93 173 175 179 181 7 7 74 73
150 148 211 207 301 306 308 339 8 44 -2 82 -32 116 -46 51 -103 66 -150 40
-13 -7 -270 -259 -572 -561 -588 -588 -568 -564 -554 -654 7 -44 45 -91 75
-91 10 0 21 -4 24 -10 4 -6 131 -10 350 -10 314 0 347 -2 387 -19 206 -89 205
-404 -2 -504 l-45 -22 -895 0 -895 0 -40 22 c-75 42 -112 86 -133 159 -9 30
-12 274 -12 918 l0 877 24 47 c31 62 43 71 148 123 10 5 60 9 112 9 78 0 101
-4 135 -22 43 -23 111 -84 111 -100 0 -5 9 -28 20 -50 19 -39 20 -62 20 -387
l0 -346 40 -42 c48 -49 92 -61 147 -38 26 11 250 229 755 733 1517 1516 1951
1941 2005 1968 56 28 182 26 246 -4 37 -18 197 -172 715 -689 690 -689 739
-732 784 -704 10 6 22 11 28 11 16 0 48 31 344 328 154 156 287 289 293 295 7
7 403 402 880 878 630 629 880 872 913 888 65 32 203 33 264 1 95 -49 146
-131 146 -237 0 -35 -4 -71 -9 -81 -5 -9 -17 -34 -27 -55 -21 -42 -2681 -2708
-2725 -2731 -28 -14 -69 -24 -137 -33 -44 -5 -111 8 -167 32 -17 8 -332 316
-701 684 -369 369 -676 671 -682 671 -7 0 -12 5 -12 10 0 15 -84 12 -116 -5
-35 -18 -690 -671 -710 -707 -17 -33 -18 -78 -2 -115 16 -36 27 -47 65 -67 40
-20 81 -20 119 -1 16 8 150 136 299 285 199 199 276 270 293 270 17 0 64 -41
170 -149 81 -82 356 -361 611 -620 255 -259 470 -471 477 -471 8 0 14 -4 14
-8 0 -14 71 -49 150 -75 80 -26 244 -37 291 -19 13 5 51 18 84 28 33 10 83 33
110 51 48 32 2725 2698 2767 2756 40 55 96 183 108 245 8 37 10 97 7 145 -5
82 -33 187 -49 187 -4 0 -8 6 -8 14 0 51 -97 166 -196 233 -96 65 -189 93
-303 92 -61 -1 -114 -7 -146 -18z"/>
</g>
</svg>
