<?xml version="1.0" encoding="UTF-8"?>
<!DOCTYPE svg PUBLIC "-//W3C//DTD SVG 1.1//EN" "http://www.w3.org/Graphics/SVG/1.1/DTD/svg11.dtd">
<!-- Creator: CorelDRAW 2018 (64-Bit) -->
<svg xmlns="http://www.w3.org/2000/svg" xml:space="preserve" width="80mm" height="80mm" version="1.1" shape-rendering="geometricPrecision" text-rendering="geometricPrecision" image-rendering="optimizeQuality" fill-rule="evenodd" clip-rule="evenodd"
viewBox="0 0 8000 8000"
 xmlns:xlink="http://www.w3.org/1999/xlink">
 <g id="Layer_x0020_1">
  <metadata id="CorelCorpID_0Corel-Layer"/>
  <path fill="#bd834a" stroke="#2B2A29" stroke-width="20" stroke-miterlimit="22.9256" d="M2687.06 6744.56l279.32 -1339.84 476.14 -35.22 0 2220.14c0,82.12 -134.77,127.72 -232.95,126.77l-978.29 -9.54 0 -632.03 455.78 -330.28zm157.9 23.84c38.6,0 69.87,31.27 69.87,69.87 0,38.59 -31.27,69.86 -69.87,69.86 -38.59,0 -69.87,-31.27 -69.87,-69.86 0,-38.6 31.28,-69.87 69.87,-69.87zm-412.64 320.24c38.59,0 69.86,31.27 69.86,69.87 0,38.59 -31.27,69.86 -69.86,69.86 -38.6,0 -69.87,-31.27 -69.87,-69.86 0,-38.6 31.27,-69.87 69.87,-69.87zm599.03 -1403.33c38.6,0 69.87,31.27 69.87,69.86 0,38.6 -31.27,69.87 -69.87,69.87 -38.59,0 -69.87,-31.27 -69.87,-69.87 0,-38.59 31.28,-69.86 69.87,-69.86zm-1683.32 1059.25l-279.32 -1339.84 -476.14 -35.22 0 2220.14c0,82.12 134.77,127.72 232.95,126.77l978.29 -9.54 0 -632.03 -455.78 -330.28zm-157.9 23.84c-38.6,0 -69.87,31.27 -69.87,69.87 0,38.59 31.27,69.86 69.87,69.86 38.59,0 69.86,-31.27 69.86,-69.86 0,-38.6 -31.27,-69.87 -69.86,-69.87zm412.64 320.24c-38.59,0 -69.86,31.27 -69.86,69.87 0,38.59 31.27,69.86 69.86,69.86 38.6,0 69.87,-31.27 69.87,-69.86 0,-38.6 -31.27,-69.87 -69.87,-69.87zm-599.03 -1403.33c-38.6,0 -69.87,31.27 -69.87,69.86 0,38.6 31.27,69.87 69.87,69.87 38.59,0 69.86,-31.27 69.86,-69.87 0,-38.59 -31.27,-69.86 -69.86,-69.86z"/>
  <path fill="#c43c2d" d="M3559.34 1136.13c68.55,-734.79 1802.67,-1355.29 2479.39,223l1148.86 285.97 208.2 86.33c-382.32,-178.55 -794.27,-114.73 -1157.54,140.54 -131.38,136.13 -281.47,190.83 -458.55,178.8l-694.39 -204.7 -1559.04 83.78c3.9,-93.9 7.85,-187.8 11.72,-281.67l322.78 -22.1c-35.08,-243.35 -180.65,-133.7 -315.23,-159.13 4.55,-110.25 9.2,-220.55 13.8,-330.82z"/>
  <path fill="#2B2A29" d="M5251.21 3439.89c813.62,0 1244.52,77.13 1414.84,179.28 16.33,9.8 35.45,208.32 41.33,525.77 0.1,6.17 251.75,42.72 346.62,-92.27 41.72,-59.35 31.32,-181.55 -19.88,-318.83 -52.34,-140.37 -218.57,-387.42 -426.34,-548.37 -34,-26.32 -57.05,-5.42 -106.55,-13.07 -84.43,-13.03 -196.17,-58.25 -209.65,-74.45 -24.27,-29.15 60.05,-180.18 75.8,-174.7 22.92,7.97 132.67,48.32 199.5,89.17 25.3,15.45 23.95,61.68 51.37,79.13 352.78,224.4 848.9,987.49 309.03,1126.69 -90.58,23.35 -223.15,-5.8 -222.95,9.32 1.62,110.75 2.9,187.45 2.9,191.98 0,126.82 -513.82,229.65 -1456.02,229.65 -942.19,0 -1281.01,-102.83 -1281.01,-229.65 0,-3.45 0.6,-41.3 1.7,-101.1 -673.55,-45.73 -732.55,-381.77 15.15,-549.8l33.05 -154.45c183.77,-99.75 430.69,-174.3 1231.11,-174.3zm-1270.26 811.22c-103.03,-11.72 -363.12,-24.12 -430.95,-145.67 -69.1,-123.85 345.9,-237.52 449.35,-254.32l-18.4 399.99z"/>
  <rect fill="#a69492" stroke="#2B2A29" stroke-width="20" stroke-miterlimit="22.9256" x="4046.69" y="6473.55" width="3340.35" height="1157.57" rx="125" ry="125"/>
  <path fill="#2B2A29" d="M3869.82 6907.76c63.78,-24.51 129.83,-46.3 193.6,-70.81 0,98.04 -4.61,324.74 -4.61,422.78 -62.99,21.51 -125.99,-6.5 -188.99,-46.41l0 -305.56z"/>
  <path fill="#2B2A29" d="M4112.85 6416.69c1052.81,0 2105.61,100 3158.42,100l0 -82.68c-1052.81,0 -2105.61,-100 -3158.42,-100l0 82.68z"/>
  <path fill="#4aaebd" d="M1538.74 884.52c284.33,0 514.81,-88.75 514.81,-198.22 0,-109.48 -230.48,-198.22 -514.81,-198.22 -284.33,0 -514.82,88.74 -514.82,198.22 0,109.47 230.49,198.22 514.82,198.22zm-493.38 -75.12c306.1,190.66 650.3,152.52 1013.61,0l-64.84 1390.88c-410.54,181.6 -616.39,175.94 -883.87,0l-64.9 -1390.88zm90.15 -204.74l427.65 -18.78 56.29 166.24 -479.95 0c-78.45,-43.56 -90.28,-93.21 -3.99,-147.46z"/>
  <path fill="#2B2A29" d="M1943.99 3469.92c-92.23,41.65 -134.07,55.84 -252.39,52.83l15.35 116.27c12.71,96.28 -72.86,187.22 -124.53,267.94l254.11 862.65c124.61,26.97 222.29,76.55 293.91,147.65l331.51 -98.87c7.41,-99.28 52.38,-182.41 121.6,-255.11l-340.04 -835.28c-74.35,-20.84 -161.77,-73.22 -228.58,-162.92l-70.94 -95.16z"/>
  <path fill="#bd834a" d="M2042.92 3536.18c83.03,-44.53 133.84,-104 133.84,-169.3 0,-138.22 -227.43,-250.28 -508.02,-250.28 -280.55,0 -507.94,112.06 -507.94,250.28 0,138.26 227.39,250.25 507.94,250.25l-6.3 -94.84c-209.42,0 -379.1,-73.49 -379.1,-164.21 0,-90.58 169.68,-164.08 379.1,-164.08 209.42,0 379.09,73.5 379.09,164.08 0,35.3 -25.72,67.97 -69.31,94.67l70.7 83.43z"/>
 </g>
</svg>
