<?xml version="1.0" encoding="UTF-8"?>
<!DOCTYPE svg PUBLIC "-//W3C//DTD SVG 1.1//EN" "http://www.w3.org/Graphics/SVG/1.1/DTD/svg11.dtd">
<!-- Creator: CorelDRAW 2018 (64-Bit) -->
<svg xmlns="http://www.w3.org/2000/svg" xml:space="preserve" width="55mm" height="55mm" version="1.1" shape-rendering="geometricPrecision" text-rendering="geometricPrecision" image-rendering="optimizeQuality" fill-rule="evenodd" clip-rule="evenodd"
viewBox="0 0 5500 5500"
 xmlns:xlink="http://www.w3.org/1999/xlink">
 <g id="Layer_x0020_1">
  <metadata id="CorelCorpID_0Corel-Layer"/>
  <circle fill="#78B833" cx="4325.76" cy="4639.38" r="679.15"/>
  <path fill="black" d="M880.48 2991.17c3.01,-49.84 8.41,-136.32 12.02,-192.17 3.6,-56.45 8.4,-110.49 10.21,-120.1 3,-17.42 10.2,-123.71 20.41,-315.28 9.01,-168.75 23.42,-383.74 42.04,-642.57 3,-37.84 7.81,-115.3 11.41,-171.16 3.6,-56.45 7.81,-108.09 9.61,-115.3l3 -13.81 213.79 -1.2c117.1,-1.2 217.39,0.6 222.2,3 6.6,4.2 8.41,27.03 8.41,124.31l0 120.11 87.07 0 87.08 0 0 -119.51c0,-103.29 1.2,-120.1 9.61,-123.11 5.4,-1.8 405.96,-3.6 890.59,-3.6 677.4,0 882.78,1.8 888.19,7.21 5.4,5.4 7.2,40.83 7.2,123.11l0 115.9 87.08 0 87.08 0 0 -119.51c0,-101.49 1.2,-120.11 9.01,-123.11 16.81,-6 430.58,-4.8 437.18,1.8 6.01,6.01 10.21,56.45 21.62,273.85 5.41,96.68 15.02,239.61 30.63,450.4 6.01,81.07 16.82,244.41 24.62,375.33 2.4,48.04 7.21,123.71 10.81,168.15 3.01,44.44 8.41,130.92 12.01,192.17 3.61,61.25 9.01,144.73 12.61,186.17 3.01,41.43 8.41,119.5 12.02,174.15 3.6,54.65 7.8,115.3 9.6,135.12 1.8,19.82 5.41,80.47 8.41,135.12 2.4,54.65 7.81,145.93 12.01,203.58 4.21,67.86 4.81,109.3 1.2,117.71 -4.2,9 -19.21,16.21 -52.84,26.42 -163.35,48.64 -256.43,103.29 -365.73,213.19 -85.87,86.47 -131.51,155.53 -178.36,267.84 -3.6,8.4 -8.4,19.81 -11.41,25.22 -6.6,13.21 -34.23,127.91 -36.63,151.93 -1.2,12.02 -6.6,20.42 -16.81,25.23 -12.01,6 -287.66,7.2 -1366.82,6 -1182.44,-1.2 -1353,-2.4 -1362.61,-10.21 -9,-7.8 -10.2,-15.01 -6.6,-54.04 6.6,-66.66 15.61,-193.98 21.62,-306.28 3,-54.65 8.4,-146.53 12.01,-204.18 3,-57.65 8.41,-140.52 11.41,-183.16 18.95,-268.12 34.48,-537.12 54.04,-804.72zm-216.78 591.53c-3.61,67.26 -9.01,152.54 -29.43,444.4 -9.01,134.52 -18.02,276.84 -23.42,369.32 -9.01,168.15 -18.62,305.68 -21.02,308.08 -1.2,1.8 0,7.8 3.6,13.81 5.41,10.81 46.25,11.41 1458.7,11.41 1089.37,0 1456.29,1.8 1468.3,7.21 11.41,5.4 15.02,11.41 15.02,27.02 0,18.02 14.41,79.27 31.22,133.92 18.62,61.25 61.26,144.73 112.3,219.19 31.83,46.85 142.33,153.74 198.18,191.57 52.84,36.04 140.52,79.87 186.76,93.69 15.02,4.8 30.03,10.2 33.03,12.61 10.81,7.2 94.29,22.82 159.75,29.42 119.5,12.01 273.84,-11.41 383.74,-57.65 213.38,-79.58 402.1,-307.19 463,-524.87 3.61,-15.02 9.01,-35.43 12.01,-45.04 16.22,-60.06 24.63,-137.52 21.02,-196.38 -3.6,-67.26 -16.21,-151.33 -22.82,-158.54 -3,-2.4 -4.8,-11.41 -4.8,-19.21 0,-39.64 -82.28,-219.8 -120.11,-262.44 -5.4,-6.6 -13.21,-16.81 -16.21,-22.82 -15.02,-28.22 -181.97,-184.36 -197.58,-184.36 -2.4,0 -12.61,-6.01 -22.82,-13.81 -18.02,-13.22 -105.69,-58.25 -113.5,-58.25 -2.4,0 -15.61,-5.41 -30.03,-11.42 -32.43,-15.01 -136.32,-40.83 -185.56,-46.24 -62.46,-6.6 -63.66,-8.4 -66.66,-90.68 -7.81,-198.77 -18.02,-355.51 -40.84,-632.36 -3,-37.83 -8.4,-118.9 -12.01,-180.16 -21.02,-366.92 -21.02,-363.92 -29.42,-471.42 -3.61,-43.23 -9.01,-122.51 -12.02,-177.15 -3,-54.65 -9,-138.13 -12.01,-186.17 -6,-78.67 -12.61,-179.56 -21.02,-324.29 -7.8,-123.71 -21.61,-326.69 -27.02,-384.34 -3.6,-34.83 -6.01,-82.27 -6.01,-105.69 0,-39.64 -1.2,-43.24 -13.21,-46.84 -7.8,-1.8 -143.52,-3.61 -302.06,-3.61 -216.8,0 -290.66,-1.8 -296.07,-7.2 -4.8,-4.81 -7.2,-36.63 -7.2,-103.3 0,-52.84 -3.01,-112.29 -6.61,-132.11 -25.82,-147.13 -40.23,-201.18 -69.06,-266.04 -4.8,-10.81 -12.61,-30.03 -17.42,-43.24 -4.2,-13.21 -15.01,-35.43 -22.82,-49.84 -8.4,-14.42 -22.22,-39.64 -31.82,-55.85 -9.01,-16.82 -20.42,-33.63 -24.03,-37.84 -4.2,-3.6 -9.6,-12.61 -11.41,-19.21 -1.8,-6.61 -6,-12.01 -8.4,-12.01 -1.81,0 -9.01,-9.01 -15.62,-19.82 -26.42,-45.04 -132.11,-157.34 -188.56,-199.38 -17.42,-13.21 -34.84,-27.02 -39.04,-30.03 -49.85,-46.84 -212.59,-129.71 -315.88,-161.54 -119.51,-36.63 -278.65,-57.05 -378.34,-48.04l0.01 0.01c-127.92,12.01 -176.56,21.62 -273.25,53.44 -165.14,54.65 -297.86,136.33 -423.37,261.24 -106.3,106.29 -180.16,215.59 -241.42,357.91 -45.64,106.3 -76.26,273.25 -76.86,413.77 0,57.65 -2.41,87.08 -7.21,91.88 -5.41,5.41 -79.87,7.21 -299.07,7.21 -270.84,0 -293.06,0.6 -301.46,10.21 -6.61,8.41 -10.81,41.44 -16.22,130.92 -4.2,66.05 -9.6,154.93 -12.61,198.17 -3,42.64 -8.4,122.51 -12.01,177.16 -6,98.49 -12.61,202.38 -24.02,363.32 -6.61,94.89 -22.22,345.31 -30.63,480.43 -2.4,49.24 -7.8,127.91 -10.81,174.15 -3,46.24 -9.01,127.32 -12.01,180.16 -14.32,210.17 -32.03,416.58 -43.83,627.56zm3949.7 1620.24c-42.63,24.62 -117.7,49.24 -177.15,58.85 -102.09,16.21 -234.21,6.6 -303.27,-21.62 -6.61,-3 -22.82,-9.01 -36.04,-13.21 -13.21,-4.21 -40.23,-16.82 -60.05,-28.23 -19.82,-11.41 -41.44,-23.42 -48.04,-27.02 -48.04,-25.83 -133.92,-110.5 -176.56,-173.56 -55.85,-82.87 -81.07,-144.13 -102.09,-249.22 -8.41,-42.04 -8.41,-178.96 0,-215.59 13.21,-56.45 18.62,-76.87 24.02,-87.08 3,-6 5.41,-14.41 5.41,-19.22 0,-20.41 64.25,-133.31 103.29,-180.76 33.63,-41.43 114.1,-115.3 133.32,-122.5 3.6,-1.21 15.01,-8.41 24.62,-16.22 37.83,-28.22 137.52,-66.06 226.4,-85.87 36.63,-8.41 163.35,-8.41 204.18,0 50.44,10.2 113.5,30.02 145.33,45.03 16.81,7.81 31.83,14.42 34.83,14.42 8.41,0 91.28,55.25 124.91,83.47 42.64,36.03 53.45,46.84 75.07,75.67 10.21,13.21 22.82,29.42 28.82,35.43 5.41,6.61 10.21,13.81 10.21,16.22 0,2.4 3.6,8.4 7.81,12.61 14.41,15.01 51.04,91.88 64.25,133.91 7.21,23.42 15.62,47.45 18.02,54.05 17.42,43.84 23.42,179.56 11.41,245.62 -12.61,67.26 -36.63,138.12 -66.06,196.37 -24.49,64.04 -190.01,229.52 -272.64,268.45zm-1954.74 -4952.6c260.64,42.04 503.25,217.39 629.96,455.8 72.07,135.72 101.49,255.23 103.29,411.37 0,52.85 0.61,100.89 0,106.29 -0.6,10.21 -46.84,10.81 -886.38,10.81l-885.79 0 0 -103.89c0,-126.71 9.61,-183.76 50.45,-304.47 18.01,-53.45 51.64,-124.31 76.26,-159.74 9.61,-13.81 17.42,-27.63 17.42,-29.43 0,-9.01 85.28,-110.49 121.31,-144.13 60.65,-57.05 77.47,-70.86 124.91,-103.29 90.08,-61.25 221,-116.5 318.28,-135.12 79.87,-15.61 247.42,-17.41 330.3,-4.2l-0.01 0z"/>
  <path fill="black" d="M4245.27 4292.53c-5.4,5.4 -7.2,42.03 -7.2,129.11 0,114.1 -0.6,121.91 -11.41,127.92 -7.21,3.6 -57.66,5.4 -128.52,4.8 -63.65,-0.6 -119.5,1.2 -123.11,3.6 -4.8,3.01 -7.2,29.43 -7.2,84.68 0,67.26 1.2,80.47 9.61,83.47 5.4,1.8 61.25,3.61 124.91,3.61 82.87,0 118.3,2.4 125.51,7.2 9.01,6.61 10.21,24.02 11.41,133.92l1.8 126.11 83.47 1.8c63.06,1.21 84.68,-0.6 88.88,-6 2.41,-4.21 4.81,-62.46 4.81,-129.12 0,-114.1 0.6,-121.9 11.41,-127.91 7.2,-3.6 58.85,-6.01 126.11,-6.01 62.45,0 117.7,-1.8 123.11,-3.6 8.41,-3 9.61,-16.21 9.61,-83.47 0,-51.65 -2.41,-81.68 -6.61,-84.68 -3.6,-1.8 -61.86,-4.2 -129.12,-4.8 -102.09,-0.6 -123.7,-2.41 -128.51,-9.61 -3,-4.81 -6,-61.86 -6,-126.71 0,-82.88 -1.81,-118.91 -7.21,-124.31 -4.8,-4.81 -31.83,-7.21 -82.87,-7.21 -51.05,0 -78.07,2.4 -82.88,7.21l0 0z"/>
  <path fill="#1C1B17" stroke="#2B2A29" stroke-width="20" stroke-miterlimit="22.9256" d="M3741.42 2614.04c-51.04,1.8 -62.45,4.2 -67.26,12.61 -3,6 -3,40.23 0,85.27 3.01,41.44 7.81,120.71 11.41,177.16 11.41,181.36 12.02,191.57 15.62,240.21 1.8,26.43 5.4,91.28 9.01,144.13 4.8,84.08 15.01,224 16.81,230.61 1.2,4.2 147.73,-7.21 161.54,-12.01 13.22,-5.41 13.82,-7.81 10.81,-40.24 -1.8,-18.62 -6,-85.88 -9,-148.33 -3.61,-63.06 -10.21,-169.35 -15.62,-237.21 -10.81,-143.53 -19.82,-270.24 -24.62,-363.32 -4.8,-93.09 -4.8,-93.09 -28.23,-91.89 -10.2,0.6 -46.84,2.41 -80.47,3.01l0 0z"/>
  <path fill="#1C1B17" stroke="#2B2A29" stroke-width="20" stroke-miterlimit="22.9256" d="M3700.59 1937.84c-29.43,3 -57.65,7.21 -61.86,8.41 -9,3.6 -8.4,42.03 4.21,270.24 4.8,84.07 9.6,127.31 14.41,130.31 16.21,10.21 159.14,-3 167.55,-15.61 2.4,-3.6 3,-22.22 1.2,-42.64 -9.61,-136.32 -21.02,-299.06 -22.22,-324.29l-1.2 -30.02 -24.02 -0.6c-13.21,-0.6 -48.04,1.2 -78.07,4.2z"/>
 </g>
</svg>
