<?xml version="1.0" encoding="UTF-8"?>
<!DOCTYPE svg PUBLIC "-//W3C//DTD SVG 1.1//EN" "http://www.w3.org/Graphics/SVG/1.1/DTD/svg11.dtd">
<!-- Creator: CorelDRAW 2018 (64-Bit) -->
<svg xmlns="http://www.w3.org/2000/svg" xml:space="preserve" width="55mm" height="55mm" version="1.1" shape-rendering="geometricPrecision" text-rendering="geometricPrecision" image-rendering="optimizeQuality" fill-rule="evenodd" clip-rule="evenodd"
viewBox="0 0 5500 5500"
 xmlns:xlink="http://www.w3.org/1999/xlink">
 <g id="Layer_x0020_1">
  <metadata id="CorelCorpID_0Corel-Layer"/>
  <path fill="#F7A707" d="M5190.5 150.43l-1034.72 10.74 -148.93 204.09 128.59 210.15 353.91 31.43 -1177.45 1209.03 -747.99 -710.92 -276.52 35.04 -1455.7 1482.44 32.86 273.06 240.53 37.88 1336.08 -1273.31 747.54 693.43 261.03 -7.6 1410.03 -1395.09 28.27 348.95c125.62,222.96 280.22,172.1 441.12,-1.82l-2.08 -975.57 -136.57 -171.93z"/>
  <path fill="#F7A707" stroke="#2B2A29" stroke-width="20" stroke-miterlimit="22.9256" d="M335.34 5301.4l1034.72 -10.74 148.93 -204.09 -128.59 -210.15 -353.91 -31.43 1177.45 -1209.03 747.99 710.92 276.52 -35.04 1455.7 -1482.44 -32.86 -273.06 -240.53 -37.88 -1336.08 1273.31 -747.54 -693.43 -261.03 7.6 -1410.03 1395.09 -28.27 -348.95c-125.62,-222.96 -280.22,-172.1 -441.12,1.82l2.08 975.57 136.57 171.93z"/>
  <g>
   <path fill="#1C1B17" d="M4605.36 1310.93c179.82,-179.28 184.11,-182.5 194.31,-173.38 9.66,8.59 10.74,18.25 12.89,85.89 1.07,41.33 4.29,85.35 7.51,97.16 5.37,20.93 27.38,72.46 33.28,77.83 2.15,1.61 10.2,12.35 18.79,24.16 35.96,49.38 90.18,88.57 142.78,104.13 13.42,3.76 29.53,9.13 36.51,11.81 6.97,2.69 32.2,4.83 56.36,4.83 113.8,0 218.47,-68.17 270.54,-177.14 26.84,-56.36 25.76,-30.59 27.37,-558.25 1.08,-439.63 0.54,-499.75 -6.97,-523.37 -13.42,-42.41 -30.06,-72.47 -57.98,-102.53 -23.61,-26.3 -87.49,-71.93 -100.37,-71.93 -3.23,0 -9.67,-2.14 -15.03,-4.83 -38.65,-19.32 -35.97,-18.78 -527.13,-19.86 -264.1,-0.54 -490.08,1.08 -501.89,3.22l0 0c-62.27,13.42 -66.03,14.5 -119.71,45.63 -56.9,32.74 -119.16,121.85 -133.12,190.56 -4.29,23.62 -4.29,87.5 0.54,115.41 8.05,48.85 51.53,125.07 87.49,154.59 6.44,5.37 15.03,12.89 18.79,16.11 26.84,25.23 89.11,57.43 111.65,57.43 5.37,0 11.27,2.15 12.89,5.37 2.14,3.22 33.81,5.37 76.76,5.37 82.66,0 97.69,2.68 97.69,15.57 0,5.36 -231.89,241.01 -515.31,524.44 -411.18,411.17 -517.47,514.77 -528.2,514.77 -10.74,0 -82.13,-68.17 -345.15,-330.12 -182.51,-181.97 -338.72,-333.88 -347.84,-338.17 -8.59,-4.3 -17.18,-9.67 -18.79,-11.28 -12.34,-13.42 -107.36,-38.65 -147.61,-38.65 -41.87,0.54 -106.82,18.25 -154.6,42.95 -22.01,11.27 -185.73,172.31 -754.18,739.69 -399.91,398.29 -733.79,734.86 -742.38,747.2 -18.25,25.77 -48.85,86.96 -57.97,113.8 -8.05,24.16 -7.52,110.04 0.54,134.2 3.22,10.74 16.64,41.33 29.52,68.71 19.32,39.72 30.6,55.82 59.58,83.2 59.58,55.83 124.54,82.13 202.37,82.13 48.31,0 136.88,-19.32 136.88,-30.06 0,-2.69 3.76,-4.83 8.05,-4.83 4.3,0 8.05,-2.15 8.05,-4.83 0,-2.69 7.52,-8.06 17.18,-12.89 9.13,-4.29 288.79,-280.2 621.06,-612.47 397.23,-397.22 608.18,-604.42 615.16,-604.42 6.98,0 103.06,92.33 273.76,263.56 384.34,384.88 392.39,392.39 427.28,413.33 48.85,29.52 157.28,55.29 180.9,42.94 5.9,-3.22 20.93,-5.91 32.74,-5.91 11.81,0 30.6,-3.75 41.87,-8.58 36.5,-16.11 68.71,-31.67 71.39,-34.36 1.61,-1.61 10.74,-8.59 20.4,-15.57 19.97,-13.97 534.88,-527.54 623.68,-620.92l497.67 -481.64zm-900.19 677.97c-249.07,249.06 -327.98,324.75 -347.3,333.34 -16.64,7.52 -36.5,11.27 -60.66,11.81 -70.32,1.07 -56.36,12.88 -460.02,-389.71 -198.08,-198.07 -366.09,-362.87 -373.07,-366.62 -6.98,-4.3 -23.08,-6.98 -35.97,-7.52l-24.15 0 -640.39 639.85c-351.59,351.6 -644.14,642 -649.51,645.22 -22.54,13.42 -49.92,19.32 -88.57,19.32 -22.54,0 -42.94,-2.68 -44.55,-5.37 -1.61,-3.22 -7.52,-5.36 -12.88,-5.36 -15.57,0 -57.44,-40.8 -72.47,-70.86 -19.32,-38.11 -19.32,-91.79 -1.07,-130.44 10.19,-21.47 150.3,-164.26 735.39,-748.82 708.56,-708.02 723.05,-721.97 755.8,-734.32 53.14,-19.86 119.16,-12.35 158.35,17.72 11.27,8.58 172.84,167.47 358.57,353.2 186.27,185.73 347.84,346.23 359.11,355.89 17.72,15.03 25.77,18.25 45.63,18.25 13.42,0 29.52,-3.76 35.43,-8.05 12.34,-9.13 1241.04,-1236.22 1264.66,-1263.06 12.89,-14.49 15.57,-22.01 15.57,-46.7 0,-24.69 -2.68,-32.21 -15.57,-46.7 -25.23,-28.45 -44.01,-31.13 -236.18,-31.13 -93.94,0 -178.22,-1.61 -187.34,-3.23 -10.2,-2.14 -29.52,-15.56 -48.31,-33.81 -25.77,-24.16 -33.82,-35.97 -41.33,-60.66 -22.01,-72.47 13.41,-150.84 83.2,-183.58 24.15,-11.27 26.84,-11.27 504.58,-11.27 529.27,0 485.79,-2.69 530.88,34.35 25.23,20.94 33.82,38.11 42.94,84.28 8.05,44.55 8.59,858.32 0,908.78 -8.05,48.84 -24.16,79.98 -52.07,99.3 -32.74,23.62 -52.06,28.99 -97.16,29.53 -32.2,0.53 -44.55,-2.15 -67.09,-13.42 -33.82,-17.18 -44.02,-25.77 -59.59,-53.15 -18.25,-31.67 -20.4,-53.14 -22.54,-245.84 -2.15,-197 -1.61,-193.78 -39.72,-213.64 -27.38,-13.96 -46.71,-12.89 -70.86,3.75 -11.27,7.52 -134.2,127.76 -272.69,266.79 -287.53,288.09 -583.75,566.57 -869.05,851.88z"/>
  </g>
  <g>
   <path fill="#1C1B17" d="M1203.75 4525.21c-315.63,315.63 -304.9,302.75 -297.38,351.06 3.75,23.62 24.15,48.85 40.25,48.85 5.37,0 11.28,2.14 12.89,5.36 2.14,3.22 70.32,5.37 187.87,5.37 168.55,0 186.27,1.08 207.74,10.2 110.58,47.77 110.04,216.86 -1.08,270.54l-24.15 11.81 -480.42 0 -480.43 0 -21.47 -11.81c-40.26,-22.54 -60.12,-46.16 -71.39,-85.35 -4.83,-16.1 -6.44,-147.08 -6.44,-492.77l0 -470.76 12.88 -25.23c16.64,-33.28 23.08,-38.11 79.45,-66.02 5.36,-2.69 32.2,-4.83 60.12,-4.83 41.87,0 54.21,2.14 72.46,11.8 23.08,12.35 59.59,45.09 59.59,53.68 0,2.69 4.83,15.03 10.73,26.84 10.2,20.94 10.74,33.28 10.74,207.74l0 185.73 21.47 22.54c25.76,26.3 49.38,32.75 78.91,20.4 13.95,-5.9 134.19,-122.92 405.27,-393.46 814.3,-813.77 1047.27,-1041.9 1076.25,-1056.4 30.06,-15.03 97.7,-13.95 132.05,2.15 19.86,9.66 105.75,92.33 383.8,369.84 370.39,369.85 396.69,392.93 420.85,377.9 5.36,-3.22 11.8,-5.9 15.03,-5.9 8.58,0 25.76,-16.64 184.65,-176.07 82.67,-83.74 154.06,-155.13 157.28,-158.35 3.76,-3.76 216.32,-215.79 472.37,-471.3 338.17,-337.64 472.37,-468.07 490.09,-476.66 34.89,-17.18 108.96,-17.72 141.71,-0.54 50.99,26.3 78.37,70.32 78.37,127.22 0,18.78 -2.15,38.11 -4.83,43.48 -2.69,4.83 -9.13,18.25 -14.5,29.52 -11.27,22.55 -1439.12,1453.62 -1462.74,1465.96 -15.03,7.52 -37.04,12.89 -73.54,17.72 -23.62,2.68 -59.58,-4.3 -89.64,-17.18 -9.13,-4.3 -178.21,-169.63 -376.29,-367.16 -198.07,-198.08 -362.87,-360.19 -366.09,-360.19 -3.75,0 -6.44,-2.68 -6.44,-5.36 0,-8.06 -45.09,-6.45 -62.26,2.68 -56.86,29.23 -801,804.22 -973.73,976.95zm850.8 -652.2c106.83,-106.82 148.16,-144.93 157.28,-144.93 9.13,0 34.36,22.01 91.26,79.98 43.48,44.02 191.09,193.78 327.97,332.81 136.88,139.03 252.29,252.83 256.05,252.83 4.29,0 7.51,2.14 7.51,4.29 0,7.52 38.12,26.3 80.52,40.26 42.95,13.95 130.98,19.86 156.21,10.2 6.97,-2.69 27.37,-9.66 45.09,-15.03 17.71,-5.37 44.55,-17.72 59.04,-27.38 25.77,-17.18 1462.74,-1448.25 1485.29,-1479.38 21.47,-29.52 51.53,-98.23 57.97,-131.51 4.3,-19.87 5.37,-52.07 3.76,-77.84 -2.68,-44.01 -17.71,-100.38 -26.3,-100.38 -2.15,0 -4.3,-3.22 -4.3,-7.51 0,-27.38 -52.06,-89.11 -105.21,-125.07 -51.53,-34.89 -101.45,-49.92 -162.64,-49.39 -32.75,0.54 -61.2,3.76 -78.37,9.67l-0.01 0c-38.11,12.88 -75.15,30.59 -83.2,40.79 -3.76,4.3 -9.66,8.05 -12.88,8.05 -3.22,0 -276.45,270.54 -607.11,601.74 -330.66,330.66 -605.49,603.89 -610.32,606.57 -6.44,3.76 -13.42,3.22 -21.47,-1.07 -6.98,-3.76 -151.38,-145.47 -321.54,-315.63 -170.16,-170.17 -319.92,-318.85 -332.81,-330.66 -20.93,-19.87 -37.57,-28.99 -93.4,-53.68 -40.79,-18.25 -153.52,-19.86 -193.24,-2.69 -58.51,25.23 -88.57,43.48 -122.39,75.69 -35.96,33.28 -574.89,568.46 -1054.78,1047.27 -112.19,111.65 -206.66,202.9 -210.96,202.9 -18.25,0 -20.93,-12.34 -20.93,-88.57 0,-74.07 -5.91,-111.11 -23.08,-147.61 -24.7,-53.14 -88.04,-121.32 -132.59,-143.32 -48.85,-24.16 -82.66,-30.06 -155.13,-26.84 -70.32,2.68 -120.24,15.56 -145.47,37.04 -5.9,5.36 -12.88,9.66 -15.03,9.66 -6.98,0 -86.96,83.74 -86.96,90.71 0,3.22 -2.15,5.91 -4.29,5.91 -6.44,0 -31.67,79.44 -35.43,111.11 -5.91,47.78 -3.76,918.98 2.15,958.7 12.34,82.13 76.22,170.7 152.98,211.5 68.71,35.96 31.13,34.35 578.12,32.2 272.15,-1.07 502.97,-3.75 511.56,-5.9 54.75,-14.49 123.99,-62.81 158.88,-110.58 15.57,-21.47 43.48,-78.91 52.61,-107.89 7.51,-23.62 8.05,-132.05 0.54,-136.35 -2.69,-1.61 -5.37,-9.12 -5.37,-16.64 0,-6.98 -5.37,-22.01 -12.35,-33.28 -6.44,-10.73 -15.57,-26.84 -19.86,-35.42 -19.86,-39.73 -115.41,-121.32 -141.71,-121.32 -4.29,0 -9.13,-2.15 -10.74,-4.83 -5.36,-8.05 -35.96,-12.35 -120.24,-16.1 -81.59,-3.22 -91.79,-5.91 -92.32,-24.16 0,-2.15 40.25,-45.62 89.64,-95.55 49.92,-49.92 92.86,-93.93 96.08,-97.15 3.76,-3.76 39.73,-39.19 80.52,-79.45l611.4 -616.77z"/>
  </g>
 </g>
</svg>
