<?xml version="1.0" encoding="UTF-8"?>
<!DOCTYPE svg PUBLIC "-//W3C//DTD SVG 1.1//EN" "http://www.w3.org/Graphics/SVG/1.1/DTD/svg11.dtd">
<!-- Creator: CorelDRAW 2018 (64-Bit) -->
<svg xmlns="http://www.w3.org/2000/svg" xml:space="preserve" width="80mm" height="80mm" version="1.1" shape-rendering="geometricPrecision" text-rendering="geometricPrecision" image-rendering="optimizeQuality" fill-rule="evenodd" clip-rule="evenodd"
viewBox="0 0 8000 8000"
 xmlns:xlink="http://www.w3.org/1999/xlink">
 <g id="Layer_x0020_1">
  <metadata id="CorelCorpID_0Corel-Layer"/>
  <path fill="#2B2A29" d="M2487.92 1177.04l2748.86 0c196.91,0 358,161.04 358,358l0 4745.51c0,196.96 -161.09,358 -358,358l-2748.86 0c-196.93,0 -357.97,-161.04 -357.97,-358l0 -4745.51c0,-196.96 161.04,-358 357.97,-358zm1367.93 356.5l0 0c712.09,0 1294.64,582.57 1294.64,1294.65l0 2114.92c0,712.08 -582.55,1294.65 -1294.64,1294.65l0 0c-712.1,0 -1294.67,-582.57 -1294.67,-1294.65l0 -2114.92c0,-712.08 582.57,-1294.65 1294.67,-1294.65zm-2.65 177.96l0.04 0c618.3,0 1124.16,505.88 1124.16,1124.17l0 2118.03c0,618.31 -505.86,1124.17 -1124.16,1124.17l-0.04 0c-618.32,0 -1124.21,-505.86 -1124.21,-1124.17l0 -2118.03c0,-618.29 505.89,-1124.17 1124.21,-1124.17zm-0.69 2369.13c493.24,0 893.09,399.86 893.09,893.1 0,493.24 -399.85,893.09 -893.09,893.09 -493.24,0 -893.1,-399.85 -893.1,-893.09 0,-493.24 399.86,-893.1 893.1,-893.1zm-5.4 162.05c406.75,0 736.47,329.72 736.47,736.47 0,406.76 -329.72,736.48 -736.47,736.48 -406.76,0 -736.48,-329.72 -736.48,-736.48 0,-406.75 329.72,-736.47 736.48,-736.47z"/>
  <path fill="black" d="M5706.9 1063.92c282.34,286.39 499.95,632.49 660.05,1050.26 125.32,327.01 215.43,697.96 273.77,1118.57 96.38,694.82 67.34,1402.96 67.34,2026.9l160.62 0 0 215.93 -613.18 1623.83 -676.92 561.12 -818.61 -121.81c-60.22,-250.78 -6.22,-433.05 150.09,-553.93l999.96 -269.97 392.95 -1239.24 0 -215.95 129.77 0c0,-1069.63 65.69,-915.96 -68.05,-1985.48 -84.65,-451.93 -164.98,-814.72 -310.98,-1155.97 -122.47,-286.23 -291.15,-557.31 -547.33,-853.13 -215.15,-248.44 -477.18,-470.83 -889.24,-589.69 -261.67,-75.49 -552.23,-99.41 -824.23,-89.09 -286.42,10.89 -561.46,66.51 -816.78,169.44 -260.02,104.82 -499.6,258.72 -709.93,464.41 -200.28,195.85 -361.2,426.45 -486.95,676.27 -148.1,294.23 -246.75,612.58 -309.77,935.34 -72.87,373.19 -106.49,795.89 -93.66,1270.33 22.57,834.25 126.01,1467.74 267.89,1953.45 155.25,531.47 356.53,886.01 548.25,1133.04 356.93,459.91 797.38,323.46 957.58,26.04 40.02,-74.33 51.17,-181.54 52.42,-265.37l4.61 -306.25 278.93 -8.23c3.53,191.22 28.11,515.63 -82.07,693.93 -144,233.07 -341.36,374.13 -582.75,439.36 -680.33,183.85 -1159.54,-883.03 -1361.39,-1370.14 -161.38,-389.42 -217.09,-694.81 -287.35,-1192.71 -134.54,-953.48 -133.85,-1974.59 122.53,-2908.55 319.16,-1162.7 1188.93,-1913.26 2401.91,-1978.12 869.2,-46.48 1389.44,115.35 2010.52,745.41z"/>
 </g>
</svg>
