<?xml version="1.0" encoding="UTF-8"?>
<!DOCTYPE svg PUBLIC "-//W3C//DTD SVG 1.1//EN" "http://www.w3.org/Graphics/SVG/1.1/DTD/svg11.dtd">
<!-- Creator: CorelDRAW 2018 (64-Bit) -->
<svg xmlns="http://www.w3.org/2000/svg" xml:space="preserve" width="80mm" height="80mm" version="1.1" shape-rendering="geometricPrecision" text-rendering="geometricPrecision" image-rendering="optimizeQuality" fill-rule="evenodd" clip-rule="evenodd"
viewBox="0 0 8000 8000"
 xmlns:xlink="http://www.w3.org/1999/xlink">
 <g id="Layer_x0020_1">
  <metadata id="CorelCorpID_0Corel-Layer"/>
  <path fill="black" d="M6778.5 5486.15l125.03 0c0,-1030.52 63.29,-882.47 -65.57,-1912.89 -227.85,1387.22 -1397.13,2427.67 -2804.29,2427.67 -1436.77,0 -2625.89,-1070.15 -2804.3,-2477.22 -118.85,971.03 -31.91,684.81 -31.91,1665.79l170.68 -0.02 -73.51 393.72 513.92 1328.76 928.97 199.15 -8.01 800.31 -776.67 -106.85 -608.05 -496.52 -610.8 -2118.55 188.32 -0.02c0,-1308.02 -118.95,-1982.82 455.83,-3112.57 406.26,-1080.07 1446.68,-1862.88 2655.6,-1862.88 1238.65,0 2298.82,812.54 2685.3,1942.16 535.12,1218.82 449.73,1962.43 449.73,3329.98l154.76 0 0 208.04 -590.76 1564.44 -652.17 540.6 -788.68 -117.36c-58.01,-241.6 -5.98,-417.21 144.61,-533.67l963.39 -260.09 378.58 -1193.92 0 -208.06zm-2754.72 -4855.83c-1367.47,0 -2477.22,1109.79 -2477.22,2477.2 0,1367.42 1109.8,2477.22 2477.22,2477.22 1367.41,0 2477.2,-1109.8 2477.2,-2477.22 0,-1367.41 -1109.79,-2477.2 -2477.2,-2477.2z"/>
  <path fill="black" d="M4023.97 4792.11c-931.47,0 -1684.54,-753.08 -1684.54,-1684.55 0,-931.47 753.07,-1684.54 1684.54,-1684.54 931.47,0 1684.55,753.07 1684.55,1684.54 0,931.47 -743.17,1684.55 -1684.55,1684.55zm0 -2982.69c-723.33,0 -1308.01,574.76 -1308.01,1298.11 0.07,723.33 594.57,1308.01 1308.01,1308.01 713.43,0 1308.02,-584.68 1308.02,-1308.01 0,-723.34 -584.6,-1298.11 -1308.02,-1298.11z"/>
  <path fill="black" d="M4023.97 5356.78c-1248.54,0 -2259.29,-1010.69 -2259.29,-2259.29 9.91,-1238.64 1020.6,-2249.25 2259.29,-2249.25 1238.65,0 2259.29,1010.69 2259.29,2259.29 0.08,1238.64 -1020.6,2249.25 -2259.29,2249.25zm0 -4161.79c-1060.23,0 -1912.42,852.18 -1912.42,1912.42 0,1060.23 852.19,1912.41 1912.42,1912.41 1060.24,0 1912.42,-852.18 1912.42,-1912.41 0.08,-1060.24 -842.19,-1912.42 -1912.42,-1912.42z"/>
 </g>
</svg>
