<?xml version="1.0" encoding="UTF-8"?>
<!DOCTYPE svg PUBLIC "-//W3C//DTD SVG 1.1//EN" "http://www.w3.org/Graphics/SVG/1.1/DTD/svg11.dtd">
<!-- Creator: CorelDRAW 2018 (64-Bit) -->
<svg xmlns="http://www.w3.org/2000/svg" xml:space="preserve" width="80mm" height="80mm" version="1.1" shape-rendering="geometricPrecision" text-rendering="geometricPrecision" image-rendering="optimizeQuality" fill-rule="evenodd" clip-rule="evenodd"
viewBox="0 0 8000 8000"
 xmlns:xlink="http://www.w3.org/1999/xlink">
 <g id="Layer_x0020_1">
  <metadata id="CorelCorpID_0Corel-Layer"/>
  <path fill="#4aacbd" d="M5725.77 603.01l817.82 -22.32c328.91,548.16 710.14,1319.19 605.15,1791.16l-279.15 25.15 109.38 753.26 495.8 621.46 -114.74 126.47 -64.91 -14.31 5.48 -68.02 -496.04 -610.49 -985.89 128.78 -91.34 -759.03 -281.49 45.44 279.93 -2017.55z"/>
  <path fill="#2B2A29" d="M4966.92 5254.27c103.01,297.25 172.09,604.48 355.57,969.3 205.03,407.85 336.79,813.75 810.13,962.81 158.85,50 331.99,-45.36 449.59,-234.49 113.34,-182.26 151,-375.14 146.17,-562.06 -5.36,-208.01 -71.96,-414.15 -107.14,-613.68l-38.3 -155.44 -65 12.26 -163.51 -275.95 -245.28 -40.95 68.82 -299.85 -107.22 -742.52 969.93 -140.07 103.3 715.39 131.74 237.89 -202.71 147.09 -92.68 269.42 -44 26.37 28.88 145.14c41.81,210.05 56.65,440.67 98.39,650.64 7.84,39.49 16.31,511.33 -201.57,823.31 -184.68,264.48 -578.4,383.21 -790.71,350.05 -725.01,-113.21 -1026.39,-1136.39 -1238.99,-1708.37 -178.64,-480.58 -418.96,-1326.81 -480.26,-1522.69 -63.86,-204.02 -202.62,-705.74 -389.85,-1273.78 -128.3,-389.31 -279.4,-809.82 -444.71,-1187.04 -141.11,-322.07 -371.49,-822.92 -668.33,-1033.33 -318.62,-225.67 -477.93,-42.05 -721.48,174.07 -148.64,131.92 -195.77,337.46 -297.09,566.6l73.31 50.93 0.04 228.73 186.18 200.86 -173.79 173.56 -254.11 654.2 -761.15 -346.36 281.02 -717.85 -12.33 -288.24 206.45 7.08 194.39 -170.98 26.32 18.82 17.24 -79.18c111.77,-302.26 315.53,-675.28 594.88,-849.61 301.11,-187.89 624.53,-92.77 873.02,105.14 279.49,222.63 593.04,837.97 740.95,1161.58 156.3,341.89 309.36,786.57 454.18,1254.66 110.95,358.57 217.14,730.88 316.34,1081.25 140.44,496.13 267,948.34 373.37,1255.29z"/>
  <path fill="#bd834a" d="M648.2 7555.07c447.6,181.17 905.35,235.75 1377.52,110.42l110.22 -1375.13 -193.03 -104.47 39.31 -491.13c-299.7,-174.87 -612.73,-182.94 -935.1,-74.95l-58.97 525.13 -229.72 35 -110.23 1375.13z"/>
  <path fill="#bd834a" d="M2330.82 7377.92c487.36,386.3 1005.4,390.67 1545.06,123.84 230.67,266.08 482.83,263.3 749.76,77.13l121.33 -1480.87c-246.75,-224.19 -495.88,-270.02 -747.46,-138.64l-209.25 -96.88c12.27,-190.35 24.55,-380.76 36.83,-571.16 -333.27,-232.1 -683.35,-253.91 -1048.84,-84.07l-63.11 551.28 -260.69 76.98c-41.21,514.11 -82.43,1028.28 -123.63,1542.39z"/>
 </g>
</svg>
