<?xml version="1.0" standalone="no"?>
<!DOCTYPE svg PUBLIC "-//W3C//DTD SVG 20010904//EN"
 "http://www.w3.org/TR/2001/REC-SVG-20010904/DTD/svg10.dtd">
<svg version="1.0" xmlns="http://www.w3.org/2000/svg"
 width="603.000000pt" height="603.000000pt" viewBox="0 0 603.000000 603.000000"
 preserveAspectRatio="xMidYMid meet">
<metadata>
Created by potrace 1.16, written by Peter Selinger 2001-2019
</metadata>
<g transform="translate(0.000000,603.000000) scale(0.100000,-0.100000)"
fill="#000000" stroke="none">
<path d="M2650 5859 c-353 -56 -605 -136 -915 -292 -310 -155 -587 -366 -816
-620 -142 -158 -199 -235 -199 -272 1 -47 31 -79 75 -79 41 0 53 11 193 176
350 414 848 723 1382 858 249 63 461 85 749 77 585 -16 1130 -218 1596 -593
161 -129 395 -380 517 -554 185 -265 359 -666 422 -975 43 -208 51 -298 50
-555 0 -283 -13 -404 -65 -620 -56 -235 -109 -380 -212 -586 -355 -708 -996
-1221 -1758 -1408 -169 -41 -317 -63 -524 -75 l-150 -9 -28 -32 c-34 -38 -31
-72 9 -107 30 -27 79 -29 281 -12 331 27 610 97 919 229 458 197 930 591 1208
1010 115 173 127 194 206 355 148 304 248 654 270 940 12 153 2 628 -16 753
-53 382 -225 820 -451 1149 -460 669 -1112 1088 -1912 1228 -106 18 -734 29
-831 14z"/>
<path d="M520 4370 c-11 -11 -38 -57 -61 -102 -140 -278 -240 -632 -270 -951
-15 -166 -6 -586 15 -722 76 -479 297 -985 591 -1350 322 -401 765 -721 1240
-897 205 -76 539 -157 591 -144 39 10 64 42 64 81 0 51 -26 71 -117 90 -299
64 -533 140 -724 236 -614 307 -1064 795 -1319 1429 -44 107 -122 369 -139
465 -45 247 -56 646 -25 887 31 243 117 531 233 784 28 61 51 122 51 136 0 62
-87 101 -130 58z"/>
<path d="M2246 4209 c-212 -29 -389 -119 -536 -275 -163 -173 -244 -372 -244
-604 0 -197 29 -307 125 -478 39 -67 109 -142 587 -628 657 -666 769 -773 820
-785 88 -20 63 -41 757 654 402 402 657 666 684 706 163 239 202 534 108 803
-55 157 -132 272 -257 384 -99 89 -254 171 -371 198 -94 22 -262 30 -346 17
-162 -25 -326 -101 -453 -209 -30 -26 -63 -53 -72 -60 -15 -12 -26 -6 -91 51
-126 110 -271 184 -412 212 -100 19 -219 25 -299 14z m231 -170 c88 -14 206
-60 279 -109 27 -19 86 -69 132 -112 141 -133 145 -134 255 -30 105 98 154
136 227 172 117 59 166 71 300 77 107 5 137 3 208 -16 245 -63 432 -239 519
-486 26 -74 28 -91 27 -225 0 -128 -4 -154 -26 -223 -51 -153 -81 -190 -489
-607 -425 -434 -864 -870 -876 -870 -15 0 -1239 1234 -1270 1280 -50 74 -82
144 -109 241 -24 82 -26 103 -22 212 4 90 11 139 27 188 69 202 188 343 371
438 139 73 279 94 447 70z"/>
</g>
</svg>
