<?xml version="1.0" encoding="UTF-8"?>
<!DOCTYPE svg PUBLIC "-//W3C//DTD SVG 1.1//EN" "http://www.w3.org/Graphics/SVG/1.1/DTD/svg11.dtd">
<!-- Creator: CorelDRAW 2018 (64-Bit) -->
<svg xmlns="http://www.w3.org/2000/svg" xml:space="preserve" width="100mm" height="100mm" version="1.1" shape-rendering="geometricPrecision" text-rendering="geometricPrecision" image-rendering="optimizeQuality" fill-rule="evenodd" clip-rule="evenodd"
viewBox="0 0 8000 8000"
 xmlns:xlink="http://www.w3.org/1999/xlink">
 <g id="Layer_x0020_1">
  <metadata id="CorelCorpID_0Corel-Layer"/>
  <path fill="black" d="M3557 413.82c-443.87,70.42 -760.74,171.01 -1150.54,367.17 -389.8,194.9 -738.1,460.21 -1026.05,779.59 -178.55,198.68 -250.23,295.5 -250.23,342.02 1.26,59.1 38.98,99.34 94.31,99.34 51.55,0 66.64,-13.84 242.68,-221.31 440.09,-520.57 1066.29,-909.11 1737.75,-1078.86 313.1,-79.22 579.67,-106.88 941.81,-96.82 735.58,20.11 1420.88,274.12 2006.83,745.64 202.45,162.21 496.68,477.82 650.09,696.61 232.62,333.22 451.41,837.44 530.63,1225.98 54.06,261.55 64.12,374.72 62.87,697.87 0,355.85 -16.35,508 -81.74,779.6 -70.41,295.49 -137.06,477.82 -266.57,736.85 -446.38,890.25 -1252.39,1535.3 -2210.54,1770.44 -212.5,51.55 -398.6,79.22 -658.89,94.31l-188.61 11.31 -35.21 40.24c-42.75,47.78 -38.98,90.53 11.32,134.54 37.72,33.95 99.33,36.47 353.33,15.09 416.21,-33.95 767.03,-121.97 1155.57,-287.95 575.9,-247.71 1169.4,-743.13 1518.96,-1269.99 144.6,-217.54 159.7,-243.94 259.03,-446.38 186.1,-382.26 311.84,-822.36 339.5,-1181.97 15.09,-192.39 2.52,-789.66 -20.11,-946.84 -66.65,-480.33 -282.92,-1031.08 -567.1,-1444.77 -578.41,-841.22 -1398.25,-1368.07 -2404.18,-1544.11 -133.29,-22.64 -922.95,-36.47 -1044.91,-17.61l0 0.01z"/>
  <path fill="black" d="M878.7 2286.11c-13.83,13.84 -47.78,71.68 -76.7,128.26 -176.04,349.56 -301.78,794.69 -339.5,1195.8 -18.87,208.74 -7.55,736.85 18.86,907.86 95.56,602.31 373.45,1238.56 743.13,1697.51 404.89,504.23 961.93,906.6 1559.2,1127.91 257.77,95.56 677.75,197.41 743.13,181.07 49.04,-12.58 80.48,-52.82 80.48,-101.85 0,-64.13 -32.69,-89.28 -147.12,-113.17 -375.97,-80.48 -670.2,-176.04 -910.37,-296.75 -772.05,-386.03 -1337.89,-999.65 -1658.53,-1796.85 -55.33,-134.54 -153.41,-463.99 -174.78,-584.7 -56.59,-310.58 -70.42,-812.29 -31.44,-1115.33 38.98,-305.55 147.12,-667.69 292.98,-985.82 35.21,-76.7 64.13,-153.4 64.13,-171.01 0,-77.95 -109.4,-127 -163.46,-72.93l-0.01 0z"/>
  <path fill="black" d="M3049 2488.56c-266.57,36.46 -489.13,149.63 -673.97,345.79 -204.96,217.53 -306.81,467.76 -306.81,759.48 0,247.71 36.46,386.03 157.17,601.04 49.04,84.25 137.06,178.56 738.11,789.66 826.12,837.44 966.95,971.98 1031.08,987.07 110.65,25.15 79.22,51.56 951.87,-822.35 505.48,-505.48 826.12,-837.44 860.07,-887.73 204.96,-300.53 254,-671.46 135.8,-1009.71 -69.16,-197.41 -165.98,-342.02 -323.15,-482.85 -124.49,-111.91 -319.39,-215.02 -466.51,-248.97 -118.2,-27.66 -329.44,-37.72 -435.06,-21.37 -203.71,31.43 -409.92,127 -569.61,262.8 -37.72,32.69 -79.22,66.64 -90.54,75.44 -18.86,15.09 -32.69,7.55 -114.42,-64.13 -158.44,-138.31 -340.76,-231.36 -518.06,-266.57 -125.74,-23.89 -275.37,-31.43 -375.97,-17.6zm290.47 213.76c110.65,17.61 259.03,75.45 350.82,137.06 33.95,23.89 108.14,86.76 165.98,140.83 177.29,167.24 182.32,168.49 320.64,37.72 132.03,-123.22 193.64,-171.01 285.43,-216.27 147.12,-74.19 208.73,-89.28 377.23,-96.83 134.54,-6.28 172.27,-3.77 261.54,20.12 308.07,79.22 543.2,300.52 652.6,611.11 32.69,93.05 35.21,114.42 33.95,282.91 0,160.96 -5.03,193.65 -32.69,280.41 -64.13,192.38 -101.85,238.91 -614.88,763.25 -534.4,545.72 -1086.4,1093.95 -1101.49,1093.95 -18.86,0 -1557.94,-1551.65 -1596.92,-1609.49 -62.87,-93.05 -103.11,-181.07 -137.06,-303.04 -30.18,-103.11 -32.69,-129.51 -27.66,-266.57 5.02,-113.17 13.83,-174.78 33.95,-236.39 86.76,-254 236.39,-431.3 466.5,-550.75 174.78,-91.8 350.82,-118.2 562.07,-88.02l-0.01 0z"/>
  <path fill="#F6A707" d="M3339.47 2702.32c110.65,17.61 259.03,75.45 350.82,137.06 33.95,23.89 108.14,86.76 165.98,140.83 177.29,167.24 182.32,168.49 320.64,37.72 132.03,-123.22 193.64,-171.01 285.43,-216.27 147.12,-74.19 208.73,-89.28 377.23,-96.83 134.54,-6.28 172.27,-3.77 261.54,20.12 308.07,79.22 543.2,300.52 652.6,611.11 32.69,93.05 35.21,114.42 33.95,282.91 0,160.96 -5.03,193.65 -32.69,280.41 -64.13,192.38 -101.85,238.91 -614.88,763.25 -534.4,545.72 -1086.4,1093.95 -1101.49,1093.95 -18.86,0 -1557.94,-1551.65 -1596.92,-1609.49 -62.87,-93.05 -103.11,-181.07 -137.06,-303.04 -30.18,-103.11 -32.69,-129.51 -27.66,-266.57 5.02,-113.17 13.83,-174.78 33.95,-236.39 86.76,-254 236.39,-431.3 466.5,-550.75 174.78,-91.8 350.82,-118.2 562.07,-88.02l-0.01 0z"/>
 </g>
</svg>
