<?xml version="1.0" standalone="no"?>
<!DOCTYPE svg PUBLIC "-//W3C//DTD SVG 20010904//EN"
 "http://www.w3.org/TR/2001/REC-SVG-20010904/DTD/svg10.dtd">
<svg version="1.0" xmlns="http://www.w3.org/2000/svg"
 width="895.000000pt" height="887.000000pt" viewBox="0 0 895.000000 887.000000"
 preserveAspectRatio="xMidYMid meet">
<metadata>
Created by potrace 1.16, written by Peter Selinger 2001-2019
</metadata>
<g transform="translate(0.000000,887.000000) scale(0.100000,-0.100000)"
fill="#000000" stroke="none">
<path d="M4028 8704 c-6 -6 -56 -13 -203 -29 -27 -3 -57 -8 -65 -11 -8 -3 -37
-10 -65 -15 -104 -19 -152 -29 -230 -50 -44 -11 -98 -25 -120 -31 -22 -6 -49
-14 -60 -18 -11 -4 -40 -13 -65 -20 -25 -7 -63 -19 -85 -27 -22 -8 -60 -22
-85 -30 -25 -8 -63 -22 -85 -32 -22 -10 -83 -36 -135 -57 -139 -56 -550 -268
-570 -294 -3 -4 -12 -9 -20 -12 -17 -6 -322 -217 -330 -228 -3 -3 -36 -30 -75
-59 -211 -160 -486 -435 -690 -690 -109 -138 -115 -148 -115 -200 0 -33 7 -49
34 -78 29 -32 39 -37 82 -37 64 -1 78 10 192 153 215 269 502 548 752 730 80
59 322 222 368 248 95 55 425 223 438 223 6 0 22 7 114 48 101 45 437 150 570
177 41 9 102 23 135 31 55 13 92 19 270 44 280 39 775 44 985 10 30 -5 89 -14
130 -20 164 -23 400 -71 500 -101 36 -11 81 -24 100 -30 19 -6 44 -14 55 -18
11 -5 38 -14 60 -20 41 -13 131 -45 175 -63 14 -6 34 -14 45 -18 151 -58 440
-202 527 -262 14 -10 29 -18 33 -18 11 0 313 -204 355 -239 19 -17 58 -47 86
-68 191 -142 470 -424 689 -698 144 -180 308 -447 434 -705 104 -215 152 -339
251 -646 6 -17 10 -40 10 -52 0 -11 4 -23 9 -26 4 -3 11 -20 15 -38 3 -18 11
-53 16 -78 28 -118 31 -132 58 -305 37 -232 47 -388 46 -665 -2 -292 -41 -642
-94 -852 -6 -21 -14 -56 -20 -78 -36 -144 -69 -261 -81 -282 -5 -10 -9 -25 -9
-33 0 -8 -4 -23 -9 -33 -4 -9 -14 -33 -21 -52 -6 -19 -23 -64 -37 -100 -13
-36 -26 -69 -27 -75 -7 -29 -196 -413 -231 -470 -14 -22 -28 -47 -32 -55 -11
-25 -220 -338 -252 -378 -17 -20 -63 -77 -103 -127 -190 -236 -469 -502 -733
-697 -5 -4 -23 -18 -40 -31 -37 -29 -227 -153 -275 -179 -19 -11 -53 -30 -75
-41 -22 -12 -47 -27 -55 -33 -25 -19 -219 -114 -360 -177 -99 -43 -153 -64
-280 -108 -140 -49 -273 -86 -425 -119 -22 -5 -60 -13 -84 -20 -112 -28 -456
-68 -651 -76 -194 -7 -204 -9 -245 -50 -30 -30 -35 -41 -35 -82 0 -40 5 -53
31 -80 18 -18 46 -34 67 -38 88 -17 540 16 757 55 28 5 70 12 95 16 25 4 54
10 65 15 11 4 47 13 80 19 104 20 160 34 170 43 5 4 18 8 28 8 20 0 140 36
169 51 10 5 22 9 28 9 12 0 188 64 237 86 17 8 33 14 36 14 3 0 38 15 79 33
40 19 88 40 107 47 101 40 381 200 556 317 307 205 624 483 848 743 45 52 90
104 100 115 11 11 53 65 94 120 41 55 81 108 88 117 8 10 27 37 42 60 15 24
31 48 36 53 21 28 87 137 87 145 0 4 4 10 8 12 30 12 265 483 337 675 14 37
33 91 42 118 8 28 19 59 23 70 5 11 14 38 21 60 6 22 15 49 19 60 26 72 91
353 120 520 40 235 42 266 37 770 -4 434 -9 538 -31 642 -2 11 -8 43 -11 70
-4 26 -14 75 -22 108 -8 33 -23 98 -33 145 -11 47 -29 119 -41 160 -12 41 -24
87 -26 103 -3 15 -9 30 -14 33 -5 3 -9 15 -9 28 0 12 -4 26 -8 32 -5 5 -15 29
-22 54 -15 49 -81 221 -110 285 -52 118 -64 144 -85 185 -35 71 -109 210 -144
268 -17 29 -31 55 -31 58 0 3 -4 10 -10 17 -5 7 -53 77 -106 156 -52 80 -123
180 -157 224 -156 200 -436 500 -582 622 -33 28 -67 56 -75 64 -47 45 -262
208 -365 277 -182 123 -537 320 -645 359 -19 7 -64 26 -100 43 -36 17 -78 34
-95 38 -16 4 -34 10 -40 14 -15 11 -311 110 -329 110 -9 0 -24 4 -34 10 -17 9
-59 19 -242 59 -140 30 -265 53 -350 64 -85 11 -1042 21 -1052 11z"/>
<path d="M742 6460 c-26 -16 -48 -52 -112 -181 -44 -89 -80 -166 -80 -171 0
-8 -16 -47 -61 -146 -10 -23 -19 -51 -19 -62 0 -10 -4 -22 -10 -25 -6 -3 -10
-17 -10 -30 0 -13 -4 -26 -9 -29 -5 -3 -12 -23 -16 -43 -4 -21 -10 -42 -15
-48 -9 -12 -78 -258 -90 -325 -5 -25 -14 -65 -19 -90 -91 -385 -114 -926 -61
-1430 5 -47 11 -96 14 -110 3 -14 10 -56 16 -95 11 -70 23 -128 40 -195 5 -19
19 -78 31 -130 38 -162 155 -509 219 -645 42 -92 167 -343 204 -410 50 -92
255 -407 276 -425 3 -3 22 -29 43 -58 21 -29 48 -65 61 -80 13 -15 50 -58 82
-97 95 -115 275 -302 379 -395 126 -113 227 -197 276 -232 13 -9 69 -49 124
-90 99 -74 210 -148 221 -148 3 0 24 -13 47 -29 106 -72 271 -160 492 -261 69
-32 188 -80 198 -80 4 0 26 -9 50 -20 66 -30 227 -83 367 -120 25 -7 56 -16
70 -20 14 -4 52 -13 85 -20 33 -6 74 -15 90 -20 17 -4 62 -13 100 -20 39 -6
89 -16 113 -21 119 -26 210 78 158 180 -28 53 -24 51 -266 101 -130 27 -250
55 -335 80 -16 5 -59 17 -95 28 -36 10 -74 22 -85 26 -11 4 -74 28 -140 53
-158 59 -137 50 -320 138 -243 118 -440 237 -665 404 -85 63 -157 117 -160
120 -3 3 -45 42 -95 85 -81 72 -154 144 -325 321 -155 162 -417 524 -523 725
-106 201 -207 408 -207 426 0 5 -13 36 -29 69 -16 33 -50 125 -75 205 -43 135
-55 173 -77 258 -5 17 -13 47 -19 65 -5 18 -10 45 -10 60 0 14 -4 28 -9 31 -4
3 -11 22 -15 43 -3 21 -11 61 -16 88 -6 28 -14 84 -19 125 -5 41 -17 129 -26
195 -12 90 -17 196 -17 425 -1 295 7 406 43 655 14 98 51 272 78 365 5 19 18
69 29 110 28 108 81 262 121 352 12 26 21 52 21 58 0 6 4 18 9 28 5 9 13 28
19 42 6 14 40 87 76 163 73 152 79 185 43 238 -41 60 -105 76 -165 39z"/>
<path d="M3340 6204 c-113 -13 -173 -26 -285 -62 -80 -25 -229 -105 -350 -188
-71 -50 -220 -194 -273 -267 -90 -122 -173 -278 -211 -397 -20 -63 -26 -87
-52 -200 -27 -116 -12 -487 22 -552 5 -10 9 -30 9 -46 0 -15 4 -32 8 -38 4 -5
14 -27 21 -49 23 -75 44 -119 102 -220 40 -71 106 -169 134 -202 5 -6 435
-440 955 -963 727 -733 956 -958 994 -977 35 -18 66 -25 107 -26 109 -1 123
10 559 451 534 539 500 500 500 561 0 44 -4 55 -35 86 -30 30 -42 35 -81 35
-29 0 -56 -7 -72 -19 -15 -11 -214 -206 -442 -435 -228 -229 -420 -416 -426
-416 -10 0 -1557 1543 -1785 1780 -48 50 -105 118 -128 153 -22 34 -45 67 -49
73 -8 9 -61 118 -82 169 -12 29 -26 74 -38 120 -6 22 -16 60 -22 84 -13 47
-16 328 -5 371 4 14 9 36 11 50 7 34 25 101 34 125 5 11 18 47 31 80 66 173
207 353 366 467 169 122 353 191 552 206 97 8 266 -2 315 -18 16 -6 42 -10 57
-10 15 0 31 -4 34 -10 3 -5 15 -10 26 -10 10 0 27 -4 37 -9 9 -5 44 -21 77
-36 139 -62 232 -130 390 -288 101 -101 137 -127 177 -127 41 0 75 25 210 155
131 127 187 169 308 230 92 46 120 57 215 84 146 41 446 42 550 1 11 -4 38
-12 60 -18 66 -18 115 -36 115 -44 0 -5 6 -8 13 -8 31 0 144 -70 243 -151 148
-120 282 -316 341 -499 49 -150 55 -198 50 -376 -2 -93 -7 -180 -11 -194 -41
-169 -87 -275 -180 -413 -45 -67 -133 -162 -364 -394 -167 -169 -313 -320
-323 -337 -25 -40 -24 -81 2 -123 36 -58 101 -78 157 -49 29 16 592 577 664
663 155 184 257 410 302 668 22 128 13 366 -20 505 -20 86 -79 249 -113 313
-66 122 -78 141 -128 205 -113 142 -240 257 -388 349 -58 36 -199 103 -218
103 -7 0 -17 4 -23 8 -8 8 -53 22 -129 43 -123 32 -419 43 -541 20 -145 -29
-179 -38 -226 -62 -10 -5 -25 -9 -33 -9 -29 0 -221 -106 -306 -168 -46 -34
-113 -89 -148 -122 -36 -33 -71 -60 -78 -60 -8 0 -44 29 -81 64 -37 35 -80 75
-97 89 -73 60 -310 197 -341 197 -8 0 -22 4 -32 9 -74 38 -163 59 -317 76
-144 16 -178 16 -315 -1z"/>
</g>
</svg>
